<svg version="1.1" xmlns="http://www.w3.org/2000/svg" viewBox="0 0 132 132"  preserveAspectRatio="xMinYMin meet"><rect width="100%" height="100%" fill="white" cx="0" cy="0"/><path d="M8,8l4,0 0,4 -4,0 0,-4z M12,8l4,0 0,4 -4,0 0,-4z M16,8l4,0 0,4 -4,0 0,-4z M20,8l4,0 0,4 -4,0 0,-4z M24,8l4,0 0,4 -4,0 0,-4z M28,8l4,0 0,4 -4,0 0,-4z M32,8l4,0 0,4 -4,0 0,-4z M40,8l4,0 0,4 -4,0 0,-4z M60,8l4,0 0,4 -4,0 0,-4z M64,8l4,0 0,4 -4,0 0,-4z M68,8l4,0 0,4 -4,0 0,-4z M76,8l4,0 0,4 -4,0 0,-4z M80,8l4,0 0,4 -4,0 0,-4z M88,8l4,0 0,4 -4,0 0,-4z M96,8l4,0 0,4 -4,0 0,-4z M100,8l4,0 0,4 -4,0 0,-4z M104,8l4,0 0,4 -4,0 0,-4z M108,8l4,0 0,4 -4,0 0,-4z M112,8l4,0 0,4 -4,0 0,-4z M116,8l4,0 0,4 -4,0 0,-4z M120,8l4,0 0,4 -4,0 0,-4z M8,12l4,0 0,4 -4,0 0,-4z M32,12l4,0 0,4 -4,0 0,-4z M40,12l4,0 0,4 -4,0 0,-4z M44,12l4,0 0,4 -4,0 0,-4z M56,12l4,0 0,4 -4,0 0,-4z M60,12l4,0 0,4 -4,0 0,-4z M64,12l4,0 0,4 -4,0 0,-4z M68,12l4,0 0,4 -4,0 0,-4z M76,12l4,0 0,4 -4,0 0,-4z M80,12l4,0 0,4 -4,0 0,-4z M84,12l4,0 0,4 -4,0 0,-4z M96,12l4,0 0,4 -4,0 0,-4z M120,12l4,0 0,4 -4,0 0,-4z M8,16l4,0 0,4 -4,0 0,-4z M16,16l4,0 0,4 -4,0 0,-4z M20,16l4,0 0,4 -4,0 0,-4z M24,16l4,0 0,4 -4,0 0,-4z M32,16l4,0 0,4 -4,0 0,-4z M40,16l4,0 0,4 -4,0 0,-4z M44,16l4,0 0,4 -4,0 0,-4z M48,16l4,0 0,4 -4,0 0,-4z M52,16l4,0 0,4 -4,0 0,-4z M60,16l4,0 0,4 -4,0 0,-4z M64,16l4,0 0,4 -4,0 0,-4z M88,16l4,0 0,4 -4,0 0,-4z M96,16l4,0 0,4 -4,0 0,-4z M104,16l4,0 0,4 -4,0 0,-4z M108,16l4,0 0,4 -4,0 0,-4z M112,16l4,0 0,4 -4,0 0,-4z M120,16l4,0 0,4 -4,0 0,-4z M8,20l4,0 0,4 -4,0 0,-4z M16,20l4,0 0,4 -4,0 0,-4z M20,20l4,0 0,4 -4,0 0,-4z M24,20l4,0 0,4 -4,0 0,-4z M32,20l4,0 0,4 -4,0 0,-4z M44,20l4,0 0,4 -4,0 0,-4z M56,20l4,0 0,4 -4,0 0,-4z M64,20l4,0 0,4 -4,0 0,-4z M68,20l4,0 0,4 -4,0 0,-4z M76,20l4,0 0,4 -4,0 0,-4z M80,20l4,0 0,4 -4,0 0,-4z M84,20l4,0 0,4 -4,0 0,-4z M88,20l4,0 0,4 -4,0 0,-4z M96,20l4,0 0,4 -4,0 0,-4z M104,20l4,0 0,4 -4,0 0,-4z M108,20l4,0 0,4 -4,0 0,-4z M112,20l4,0 0,4 -4,0 0,-4z M120,20l4,0 0,4 -4,0 0,-4z M8,24l4,0 0,4 -4,0 0,-4z M16,24l4,0 0,4 -4,0 0,-4z M20,24l4,0 0,4 -4,0 0,-4z M24,24l4,0 0,4 -4,0 0,-4z M32,24l4,0 0,4 -4,0 0,-4z M40,24l4,0 0,4 -4,0 0,-4z M48,24l4,0 0,4 -4,0 0,-4z M52,24l4,0 0,4 -4,0 0,-4z M60,24l4,0 0,4 -4,0 0,-4z M68,24l4,0 0,4 -4,0 0,-4z M80,24l4,0 0,4 -4,0 0,-4z M84,24l4,0 0,4 -4,0 0,-4z M88,24l4,0 0,4 -4,0 0,-4z M96,24l4,0 0,4 -4,0 0,-4z M104,24l4,0 0,4 -4,0 0,-4z M108,24l4,0 0,4 -4,0 0,-4z M112,24l4,0 0,4 -4,0 0,-4z M120,24l4,0 0,4 -4,0 0,-4z M8,28l4,0 0,4 -4,0 0,-4z M32,28l4,0 0,4 -4,0 0,-4z M44,28l4,0 0,4 -4,0 0,-4z M56,28l4,0 0,4 -4,0 0,-4z M60,28l4,0 0,4 -4,0 0,-4z M64,28l4,0 0,4 -4,0 0,-4z M88,28l4,0 0,4 -4,0 0,-4z M96,28l4,0 0,4 -4,0 0,-4z M120,28l4,0 0,4 -4,0 0,-4z M8,32l4,0 0,4 -4,0 0,-4z M12,32l4,0 0,4 -4,0 0,-4z M16,32l4,0 0,4 -4,0 0,-4z M20,32l4,0 0,4 -4,0 0,-4z M24,32l4,0 0,4 -4,0 0,-4z M28,32l4,0 0,4 -4,0 0,-4z M32,32l4,0 0,4 -4,0 0,-4z M40,32l4,0 0,4 -4,0 0,-4z M48,32l4,0 0,4 -4,0 0,-4z M56,32l4,0 0,4 -4,0 0,-4z M64,32l4,0 0,4 -4,0 0,-4z M72,32l4,0 0,4 -4,0 0,-4z M80,32l4,0 0,4 -4,0 0,-4z M88,32l4,0 0,4 -4,0 0,-4z M96,32l4,0 0,4 -4,0 0,-4z M100,32l4,0 0,4 -4,0 0,-4z M104,32l4,0 0,4 -4,0 0,-4z M108,32l4,0 0,4 -4,0 0,-4z M112,32l4,0 0,4 -4,0 0,-4z M116,32l4,0 0,4 -4,0 0,-4z M120,32l4,0 0,4 -4,0 0,-4z M44,36l4,0 0,4 -4,0 0,-4z M52,36l4,0 0,4 -4,0 0,-4z M64,36l4,0 0,4 -4,0 0,-4z M84,36l4,0 0,4 -4,0 0,-4z M8,40l4,0 0,4 -4,0 0,-4z M20,40l4,0 0,4 -4,0 0,-4z M24,40l4,0 0,4 -4,0 0,-4z M28,40l4,0 0,4 -4,0 0,-4z M32,40l4,0 0,4 -4,0 0,-4z M36,40l4,0 0,4 -4,0 0,-4z M40,40l4,0 0,4 -4,0 0,-4z M44,40l4,0 0,4 -4,0 0,-4z M52,40l4,0 0,4 -4,0 0,-4z M56,40l4,0 0,4 -4,0 0,-4z M60,40l4,0 0,4 -4,0 0,-4z M64,40l4,0 0,4 -4,0 0,-4z M68,40l4,0 0,4 -4,0 0,-4z M72,40l4,0 0,4 -4,0 0,-4z M76,40l4,0 0,4 -4,0 0,-4z M92,40l4,0 0,4 -4,0 0,-4z M104,40l4,0 0,4 -4,0 0,-4z M112,40l4,0 0,4 -4,0 0,-4z M116,40l4,0 0,4 -4,0 0,-4z M120,40l4,0 0,4 -4,0 0,-4z M8,44l4,0 0,4 -4,0 0,-4z M12,44l4,0 0,4 -4,0 0,-4z M20,44l4,0 0,4 -4,0 0,-4z M24,44l4,0 0,4 -4,0 0,-4z M28,44l4,0 0,4 -4,0 0,-4z M36,44l4,0 0,4 -4,0 0,-4z M40,44l4,0 0,4 -4,0 0,-4z M48,44l4,0 0,4 -4,0 0,-4z M64,44l4,0 0,4 -4,0 0,-4z M84,44l4,0 0,4 -4,0 0,-4z M100,44l4,0 0,4 -4,0 0,-4z M104,44l4,0 0,4 -4,0 0,-4z M112,44l4,0 0,4 -4,0 0,-4z M116,44l4,0 0,4 -4,0 0,-4z M16,48l4,0 0,4 -4,0 0,-4z M28,48l4,0 0,4 -4,0 0,-4z M32,48l4,0 0,4 -4,0 0,-4z M36,48l4,0 0,4 -4,0 0,-4z M48,48l4,0 0,4 -4,0 0,-4z M64,48l4,0 0,4 -4,0 0,-4z M80,48l4,0 0,4 -4,0 0,-4z M92,48l4,0 0,4 -4,0 0,-4z M96,48l4,0 0,4 -4,0 0,-4z M112,48l4,0 0,4 -4,0 0,-4z M20,52l4,0 0,4 -4,0 0,-4z M24,52l4,0 0,4 -4,0 0,-4z M36,52l4,0 0,4 -4,0 0,-4z M44,52l4,0 0,4 -4,0 0,-4z M64,52l4,0 0,4 -4,0 0,-4z M68,52l4,0 0,4 -4,0 0,-4z M76,52l4,0 0,4 -4,0 0,-4z M84,52l4,0 0,4 -4,0 0,-4z M88,52l4,0 0,4 -4,0 0,-4z M92,52l4,0 0,4 -4,0 0,-4z M100,52l4,0 0,4 -4,0 0,-4z M104,52l4,0 0,4 -4,0 0,-4z M108,52l4,0 0,4 -4,0 0,-4z M120,52l4,0 0,4 -4,0 0,-4z M8,56l4,0 0,4 -4,0 0,-4z M32,56l4,0 0,4 -4,0 0,-4z M48,56l4,0 0,4 -4,0 0,-4z M52,56l4,0 0,4 -4,0 0,-4z M60,56l4,0 0,4 -4,0 0,-4z M64,56l4,0 0,4 -4,0 0,-4z M88,56l4,0 0,4 -4,0 0,-4z M96,56l4,0 0,4 -4,0 0,-4z M120,56l4,0 0,4 -4,0 0,-4z M16,60l4,0 0,4 -4,0 0,-4z M20,60l4,0 0,4 -4,0 0,-4z M28,60l4,0 0,4 -4,0 0,-4z M36,60l4,0 0,4 -4,0 0,-4z M40,60l4,0 0,4 -4,0 0,-4z M52,60l4,0 0,4 -4,0 0,-4z M80,60l4,0 0,4 -4,0 0,-4z M96,60l4,0 0,4 -4,0 0,-4z M100,60l4,0 0,4 -4,0 0,-4z M104,60l4,0 0,4 -4,0 0,-4z M108,60l4,0 0,4 -4,0 0,-4z M112,60l4,0 0,4 -4,0 0,-4z M116,60l4,0 0,4 -4,0 0,-4z M120,60l4,0 0,4 -4,0 0,-4z M12,64l4,0 0,4 -4,0 0,-4z M16,64l4,0 0,4 -4,0 0,-4z M20,64l4,0 0,4 -4,0 0,-4z M28,64l4,0 0,4 -4,0 0,-4z M32,64l4,0 0,4 -4,0 0,-4z M40,64l4,0 0,4 -4,0 0,-4z M48,64l4,0 0,4 -4,0 0,-4z M56,64l4,0 0,4 -4,0 0,-4z M64,64l4,0 0,4 -4,0 0,-4z M68,64l4,0 0,4 -4,0 0,-4z M84,64l4,0 0,4 -4,0 0,-4z M88,64l4,0 0,4 -4,0 0,-4z M92,64l4,0 0,4 -4,0 0,-4z M100,64l4,0 0,4 -4,0 0,-4z M104,64l4,0 0,4 -4,0 0,-4z M112,64l4,0 0,4 -4,0 0,-4z M120,64l4,0 0,4 -4,0 0,-4z M16,68l4,0 0,4 -4,0 0,-4z M20,68l4,0 0,4 -4,0 0,-4z M24,68l4,0 0,4 -4,0 0,-4z M28,68l4,0 0,4 -4,0 0,-4z M36,68l4,0 0,4 -4,0 0,-4z M40,68l4,0 0,4 -4,0 0,-4z M48,68l4,0 0,4 -4,0 0,-4z M52,68l4,0 0,4 -4,0 0,-4z M56,68l4,0 0,4 -4,0 0,-4z M60,68l4,0 0,4 -4,0 0,-4z M64,68l4,0 0,4 -4,0 0,-4z M72,68l4,0 0,4 -4,0 0,-4z M84,68l4,0 0,4 -4,0 0,-4z M88,68l4,0 0,4 -4,0 0,-4z M92,68l4,0 0,4 -4,0 0,-4z M96,68l4,0 0,4 -4,0 0,-4z M112,68l4,0 0,4 -4,0 0,-4z M120,68l4,0 0,4 -4,0 0,-4z M12,72l4,0 0,4 -4,0 0,-4z M16,72l4,0 0,4 -4,0 0,-4z M20,72l4,0 0,4 -4,0 0,-4z M28,72l4,0 0,4 -4,0 0,-4z M32,72l4,0 0,4 -4,0 0,-4z M36,72l4,0 0,4 -4,0 0,-4z M40,72l4,0 0,4 -4,0 0,-4z M44,72l4,0 0,4 -4,0 0,-4z M68,72l4,0 0,4 -4,0 0,-4z M88,72l4,0 0,4 -4,0 0,-4z M100,72l4,0 0,4 -4,0 0,-4z M108,72l4,0 0,4 -4,0 0,-4z M8,76l4,0 0,4 -4,0 0,-4z M12,76l4,0 0,4 -4,0 0,-4z M16,76l4,0 0,4 -4,0 0,-4z M28,76l4,0 0,4 -4,0 0,-4z M48,76l4,0 0,4 -4,0 0,-4z M52,76l4,0 0,4 -4,0 0,-4z M56,76l4,0 0,4 -4,0 0,-4z M76,76l4,0 0,4 -4,0 0,-4z M84,76l4,0 0,4 -4,0 0,-4z M88,76l4,0 0,4 -4,0 0,-4z M104,76l4,0 0,4 -4,0 0,-4z M112,76l4,0 0,4 -4,0 0,-4z M116,76l4,0 0,4 -4,0 0,-4z M8,80l4,0 0,4 -4,0 0,-4z M12,80l4,0 0,4 -4,0 0,-4z M16,80l4,0 0,4 -4,0 0,-4z M24,80l4,0 0,4 -4,0 0,-4z M28,80l4,0 0,4 -4,0 0,-4z M32,80l4,0 0,4 -4,0 0,-4z M40,80l4,0 0,4 -4,0 0,-4z M60,80l4,0 0,4 -4,0 0,-4z M64,80l4,0 0,4 -4,0 0,-4z M72,80l4,0 0,4 -4,0 0,-4z M76,80l4,0 0,4 -4,0 0,-4z M84,80l4,0 0,4 -4,0 0,-4z M88,80l4,0 0,4 -4,0 0,-4z M100,80l4,0 0,4 -4,0 0,-4z M104,80l4,0 0,4 -4,0 0,-4z M108,80l4,0 0,4 -4,0 0,-4z M120,80l4,0 0,4 -4,0 0,-4z M8,84l4,0 0,4 -4,0 0,-4z M12,84l4,0 0,4 -4,0 0,-4z M16,84l4,0 0,4 -4,0 0,-4z M20,84l4,0 0,4 -4,0 0,-4z M24,84l4,0 0,4 -4,0 0,-4z M28,84l4,0 0,4 -4,0 0,-4z M40,84l4,0 0,4 -4,0 0,-4z M44,84l4,0 0,4 -4,0 0,-4z M52,84l4,0 0,4 -4,0 0,-4z M56,84l4,0 0,4 -4,0 0,-4z M60,84l4,0 0,4 -4,0 0,-4z M68,84l4,0 0,4 -4,0 0,-4z M72,84l4,0 0,4 -4,0 0,-4z M80,84l4,0 0,4 -4,0 0,-4z M100,84l4,0 0,4 -4,0 0,-4z M108,84l4,0 0,4 -4,0 0,-4z M112,84l4,0 0,4 -4,0 0,-4z M8,88l4,0 0,4 -4,0 0,-4z M12,88l4,0 0,4 -4,0 0,-4z M28,88l4,0 0,4 -4,0 0,-4z M32,88l4,0 0,4 -4,0 0,-4z M36,88l4,0 0,4 -4,0 0,-4z M40,88l4,0 0,4 -4,0 0,-4z M44,88l4,0 0,4 -4,0 0,-4z M52,88l4,0 0,4 -4,0 0,-4z M60,88l4,0 0,4 -4,0 0,-4z M76,88l4,0 0,4 -4,0 0,-4z M80,88l4,0 0,4 -4,0 0,-4z M88,88l4,0 0,4 -4,0 0,-4z M92,88l4,0 0,4 -4,0 0,-4z M96,88l4,0 0,4 -4,0 0,-4z M100,88l4,0 0,4 -4,0 0,-4z M104,88l4,0 0,4 -4,0 0,-4z M108,88l4,0 0,4 -4,0 0,-4z M112,88l4,0 0,4 -4,0 0,-4z M116,88l4,0 0,4 -4,0 0,-4z M40,92l4,0 0,4 -4,0 0,-4z M48,92l4,0 0,4 -4,0 0,-4z M52,92l4,0 0,4 -4,0 0,-4z M56,92l4,0 0,4 -4,0 0,-4z M60,92l4,0 0,4 -4,0 0,-4z M72,92l4,0 0,4 -4,0 0,-4z M76,92l4,0 0,4 -4,0 0,-4z M80,92l4,0 0,4 -4,0 0,-4z M88,92l4,0 0,4 -4,0 0,-4z M104,92l4,0 0,4 -4,0 0,-4z M108,92l4,0 0,4 -4,0 0,-4z M8,96l4,0 0,4 -4,0 0,-4z M12,96l4,0 0,4 -4,0 0,-4z M16,96l4,0 0,4 -4,0 0,-4z M20,96l4,0 0,4 -4,0 0,-4z M24,96l4,0 0,4 -4,0 0,-4z M28,96l4,0 0,4 -4,0 0,-4z M32,96l4,0 0,4 -4,0 0,-4z M40,96l4,0 0,4 -4,0 0,-4z M56,96l4,0 0,4 -4,0 0,-4z M60,96l4,0 0,4 -4,0 0,-4z M68,96l4,0 0,4 -4,0 0,-4z M72,96l4,0 0,4 -4,0 0,-4z M84,96l4,0 0,4 -4,0 0,-4z M88,96l4,0 0,4 -4,0 0,-4z M96,96l4,0 0,4 -4,0 0,-4z M104,96l4,0 0,4 -4,0 0,-4z M108,96l4,0 0,4 -4,0 0,-4z M8,100l4,0 0,4 -4,0 0,-4z M32,100l4,0 0,4 -4,0 0,-4z M40,100l4,0 0,4 -4,0 0,-4z M48,100l4,0 0,4 -4,0 0,-4z M60,100l4,0 0,4 -4,0 0,-4z M72,100l4,0 0,4 -4,0 0,-4z M76,100l4,0 0,4 -4,0 0,-4z M88,100l4,0 0,4 -4,0 0,-4z M104,100l4,0 0,4 -4,0 0,-4z M116,100l4,0 0,4 -4,0 0,-4z M120,100l4,0 0,4 -4,0 0,-4z M8,104l4,0 0,4 -4,0 0,-4z M16,104l4,0 0,4 -4,0 0,-4z M20,104l4,0 0,4 -4,0 0,-4z M24,104l4,0 0,4 -4,0 0,-4z M32,104l4,0 0,4 -4,0 0,-4z M40,104l4,0 0,4 -4,0 0,-4z M60,104l4,0 0,4 -4,0 0,-4z M68,104l4,0 0,4 -4,0 0,-4z M72,104l4,0 0,4 -4,0 0,-4z M80,104l4,0 0,4 -4,0 0,-4z M84,104l4,0 0,4 -4,0 0,-4z M88,104l4,0 0,4 -4,0 0,-4z M92,104l4,0 0,4 -4,0 0,-4z M96,104l4,0 0,4 -4,0 0,-4z M100,104l4,0 0,4 -4,0 0,-4z M104,104l4,0 0,4 -4,0 0,-4z M108,104l4,0 0,4 -4,0 0,-4z M8,108l4,0 0,4 -4,0 0,-4z M16,108l4,0 0,4 -4,0 0,-4z M20,108l4,0 0,4 -4,0 0,-4z M24,108l4,0 0,4 -4,0 0,-4z M32,108l4,0 0,4 -4,0 0,-4z M40,108l4,0 0,4 -4,0 0,-4z M48,108l4,0 0,4 -4,0 0,-4z M52,108l4,0 0,4 -4,0 0,-4z M60,108l4,0 0,4 -4,0 0,-4z M64,108l4,0 0,4 -4,0 0,-4z M72,108l4,0 0,4 -4,0 0,-4z M92,108l4,0 0,4 -4,0 0,-4z M116,108l4,0 0,4 -4,0 0,-4z M8,112l4,0 0,4 -4,0 0,-4z M16,112l4,0 0,4 -4,0 0,-4z M20,112l4,0 0,4 -4,0 0,-4z M24,112l4,0 0,4 -4,0 0,-4z M32,112l4,0 0,4 -4,0 0,-4z M52,112l4,0 0,4 -4,0 0,-4z M56,112l4,0 0,4 -4,0 0,-4z M60,112l4,0 0,4 -4,0 0,-4z M64,112l4,0 0,4 -4,0 0,-4z M72,112l4,0 0,4 -4,0 0,-4z M76,112l4,0 0,4 -4,0 0,-4z M80,112l4,0 0,4 -4,0 0,-4z M84,112l4,0 0,4 -4,0 0,-4z M92,112l4,0 0,4 -4,0 0,-4z M100,112l4,0 0,4 -4,0 0,-4z M104,112l4,0 0,4 -4,0 0,-4z M112,112l4,0 0,4 -4,0 0,-4z M116,112l4,0 0,4 -4,0 0,-4z M120,112l4,0 0,4 -4,0 0,-4z M8,116l4,0 0,4 -4,0 0,-4z M32,116l4,0 0,4 -4,0 0,-4z M44,116l4,0 0,4 -4,0 0,-4z M56,116l4,0 0,4 -4,0 0,-4z M60,116l4,0 0,4 -4,0 0,-4z M64,116l4,0 0,4 -4,0 0,-4z M68,116l4,0 0,4 -4,0 0,-4z M84,116l4,0 0,4 -4,0 0,-4z M92,116l4,0 0,4 -4,0 0,-4z M104,116l4,0 0,4 -4,0 0,-4z M108,116l4,0 0,4 -4,0 0,-4z M112,116l4,0 0,4 -4,0 0,-4z M120,116l4,0 0,4 -4,0 0,-4z M8,120l4,0 0,4 -4,0 0,-4z M12,120l4,0 0,4 -4,0 0,-4z M16,120l4,0 0,4 -4,0 0,-4z M20,120l4,0 0,4 -4,0 0,-4z M24,120l4,0 0,4 -4,0 0,-4z M28,120l4,0 0,4 -4,0 0,-4z M32,120l4,0 0,4 -4,0 0,-4z M40,120l4,0 0,4 -4,0 0,-4z M48,120l4,0 0,4 -4,0 0,-4z M60,120l4,0 0,4 -4,0 0,-4z M76,120l4,0 0,4 -4,0 0,-4z M80,120l4,0 0,4 -4,0 0,-4z M84,120l4,0 0,4 -4,0 0,-4z M88,120l4,0 0,4 -4,0 0,-4z M92,120l4,0 0,4 -4,0 0,-4z M104,120l4,0 0,4 -4,0 0,-4z " stroke="transparent" fill="black"/></svg>
