<svg version="1.1" xmlns="http://www.w3.org/2000/svg" viewBox="0 0 132 132"  preserveAspectRatio="xMinYMin meet"><rect width="100%" height="100%" fill="white" cx="0" cy="0"/><path d="M8,8l4,0 0,4 -4,0 0,-4z M12,8l4,0 0,4 -4,0 0,-4z M16,8l4,0 0,4 -4,0 0,-4z M20,8l4,0 0,4 -4,0 0,-4z M24,8l4,0 0,4 -4,0 0,-4z M28,8l4,0 0,4 -4,0 0,-4z M32,8l4,0 0,4 -4,0 0,-4z M44,8l4,0 0,4 -4,0 0,-4z M48,8l4,0 0,4 -4,0 0,-4z M52,8l4,0 0,4 -4,0 0,-4z M64,8l4,0 0,4 -4,0 0,-4z M80,8l4,0 0,4 -4,0 0,-4z M84,8l4,0 0,4 -4,0 0,-4z M88,8l4,0 0,4 -4,0 0,-4z M96,8l4,0 0,4 -4,0 0,-4z M100,8l4,0 0,4 -4,0 0,-4z M104,8l4,0 0,4 -4,0 0,-4z M108,8l4,0 0,4 -4,0 0,-4z M112,8l4,0 0,4 -4,0 0,-4z M116,8l4,0 0,4 -4,0 0,-4z M120,8l4,0 0,4 -4,0 0,-4z M8,12l4,0 0,4 -4,0 0,-4z M32,12l4,0 0,4 -4,0 0,-4z M48,12l4,0 0,4 -4,0 0,-4z M52,12l4,0 0,4 -4,0 0,-4z M72,12l4,0 0,4 -4,0 0,-4z M88,12l4,0 0,4 -4,0 0,-4z M96,12l4,0 0,4 -4,0 0,-4z M120,12l4,0 0,4 -4,0 0,-4z M8,16l4,0 0,4 -4,0 0,-4z M16,16l4,0 0,4 -4,0 0,-4z M20,16l4,0 0,4 -4,0 0,-4z M24,16l4,0 0,4 -4,0 0,-4z M32,16l4,0 0,4 -4,0 0,-4z M52,16l4,0 0,4 -4,0 0,-4z M64,16l4,0 0,4 -4,0 0,-4z M68,16l4,0 0,4 -4,0 0,-4z M76,16l4,0 0,4 -4,0 0,-4z M84,16l4,0 0,4 -4,0 0,-4z M88,16l4,0 0,4 -4,0 0,-4z M96,16l4,0 0,4 -4,0 0,-4z M104,16l4,0 0,4 -4,0 0,-4z M108,16l4,0 0,4 -4,0 0,-4z M112,16l4,0 0,4 -4,0 0,-4z M120,16l4,0 0,4 -4,0 0,-4z M8,20l4,0 0,4 -4,0 0,-4z M16,20l4,0 0,4 -4,0 0,-4z M20,20l4,0 0,4 -4,0 0,-4z M24,20l4,0 0,4 -4,0 0,-4z M32,20l4,0 0,4 -4,0 0,-4z M60,20l4,0 0,4 -4,0 0,-4z M72,20l4,0 0,4 -4,0 0,-4z M96,20l4,0 0,4 -4,0 0,-4z M104,20l4,0 0,4 -4,0 0,-4z M108,20l4,0 0,4 -4,0 0,-4z M112,20l4,0 0,4 -4,0 0,-4z M120,20l4,0 0,4 -4,0 0,-4z M8,24l4,0 0,4 -4,0 0,-4z M16,24l4,0 0,4 -4,0 0,-4z M20,24l4,0 0,4 -4,0 0,-4z M24,24l4,0 0,4 -4,0 0,-4z M32,24l4,0 0,4 -4,0 0,-4z M52,24l4,0 0,4 -4,0 0,-4z M56,24l4,0 0,4 -4,0 0,-4z M76,24l4,0 0,4 -4,0 0,-4z M80,24l4,0 0,4 -4,0 0,-4z M88,24l4,0 0,4 -4,0 0,-4z M96,24l4,0 0,4 -4,0 0,-4z M104,24l4,0 0,4 -4,0 0,-4z M108,24l4,0 0,4 -4,0 0,-4z M112,24l4,0 0,4 -4,0 0,-4z M120,24l4,0 0,4 -4,0 0,-4z M8,28l4,0 0,4 -4,0 0,-4z M32,28l4,0 0,4 -4,0 0,-4z M40,28l4,0 0,4 -4,0 0,-4z M48,28l4,0 0,4 -4,0 0,-4z M68,28l4,0 0,4 -4,0 0,-4z M72,28l4,0 0,4 -4,0 0,-4z M76,28l4,0 0,4 -4,0 0,-4z M80,28l4,0 0,4 -4,0 0,-4z M84,28l4,0 0,4 -4,0 0,-4z M96,28l4,0 0,4 -4,0 0,-4z M120,28l4,0 0,4 -4,0 0,-4z M8,32l4,0 0,4 -4,0 0,-4z M12,32l4,0 0,4 -4,0 0,-4z M16,32l4,0 0,4 -4,0 0,-4z M20,32l4,0 0,4 -4,0 0,-4z M24,32l4,0 0,4 -4,0 0,-4z M28,32l4,0 0,4 -4,0 0,-4z M32,32l4,0 0,4 -4,0 0,-4z M40,32l4,0 0,4 -4,0 0,-4z M48,32l4,0 0,4 -4,0 0,-4z M56,32l4,0 0,4 -4,0 0,-4z M64,32l4,0 0,4 -4,0 0,-4z M72,32l4,0 0,4 -4,0 0,-4z M80,32l4,0 0,4 -4,0 0,-4z M88,32l4,0 0,4 -4,0 0,-4z M96,32l4,0 0,4 -4,0 0,-4z M100,32l4,0 0,4 -4,0 0,-4z M104,32l4,0 0,4 -4,0 0,-4z M108,32l4,0 0,4 -4,0 0,-4z M112,32l4,0 0,4 -4,0 0,-4z M116,32l4,0 0,4 -4,0 0,-4z M120,32l4,0 0,4 -4,0 0,-4z M44,36l4,0 0,4 -4,0 0,-4z M52,36l4,0 0,4 -4,0 0,-4z M60,36l4,0 0,4 -4,0 0,-4z M68,36l4,0 0,4 -4,0 0,-4z M72,36l4,0 0,4 -4,0 0,-4z M76,36l4,0 0,4 -4,0 0,-4z M80,36l4,0 0,4 -4,0 0,-4z M88,36l4,0 0,4 -4,0 0,-4z M8,40l4,0 0,4 -4,0 0,-4z M20,40l4,0 0,4 -4,0 0,-4z M28,40l4,0 0,4 -4,0 0,-4z M32,40l4,0 0,4 -4,0 0,-4z M40,40l4,0 0,4 -4,0 0,-4z M44,40l4,0 0,4 -4,0 0,-4z M48,40l4,0 0,4 -4,0 0,-4z M52,40l4,0 0,4 -4,0 0,-4z M56,40l4,0 0,4 -4,0 0,-4z M64,40l4,0 0,4 -4,0 0,-4z M72,40l4,0 0,4 -4,0 0,-4z M84,40l4,0 0,4 -4,0 0,-4z M92,40l4,0 0,4 -4,0 0,-4z M100,40l4,0 0,4 -4,0 0,-4z M8,44l4,0 0,4 -4,0 0,-4z M20,44l4,0 0,4 -4,0 0,-4z M28,44l4,0 0,4 -4,0 0,-4z M60,44l4,0 0,4 -4,0 0,-4z M68,44l4,0 0,4 -4,0 0,-4z M72,44l4,0 0,4 -4,0 0,-4z M76,44l4,0 0,4 -4,0 0,-4z M80,44l4,0 0,4 -4,0 0,-4z M88,44l4,0 0,4 -4,0 0,-4z M92,44l4,0 0,4 -4,0 0,-4z M96,44l4,0 0,4 -4,0 0,-4z M108,44l4,0 0,4 -4,0 0,-4z M120,44l4,0 0,4 -4,0 0,-4z M12,48l4,0 0,4 -4,0 0,-4z M24,48l4,0 0,4 -4,0 0,-4z M32,48l4,0 0,4 -4,0 0,-4z M36,48l4,0 0,4 -4,0 0,-4z M40,48l4,0 0,4 -4,0 0,-4z M56,48l4,0 0,4 -4,0 0,-4z M60,48l4,0 0,4 -4,0 0,-4z M64,48l4,0 0,4 -4,0 0,-4z M68,48l4,0 0,4 -4,0 0,-4z M76,48l4,0 0,4 -4,0 0,-4z M80,48l4,0 0,4 -4,0 0,-4z M84,48l4,0 0,4 -4,0 0,-4z M96,48l4,0 0,4 -4,0 0,-4z M100,48l4,0 0,4 -4,0 0,-4z M108,48l4,0 0,4 -4,0 0,-4z M112,48l4,0 0,4 -4,0 0,-4z M116,48l4,0 0,4 -4,0 0,-4z M16,52l4,0 0,4 -4,0 0,-4z M40,52l4,0 0,4 -4,0 0,-4z M52,52l4,0 0,4 -4,0 0,-4z M56,52l4,0 0,4 -4,0 0,-4z M60,52l4,0 0,4 -4,0 0,-4z M72,52l4,0 0,4 -4,0 0,-4z M80,52l4,0 0,4 -4,0 0,-4z M96,52l4,0 0,4 -4,0 0,-4z M112,52l4,0 0,4 -4,0 0,-4z M116,52l4,0 0,4 -4,0 0,-4z M12,56l4,0 0,4 -4,0 0,-4z M28,56l4,0 0,4 -4,0 0,-4z M32,56l4,0 0,4 -4,0 0,-4z M36,56l4,0 0,4 -4,0 0,-4z M48,56l4,0 0,4 -4,0 0,-4z M52,56l4,0 0,4 -4,0 0,-4z M56,56l4,0 0,4 -4,0 0,-4z M64,56l4,0 0,4 -4,0 0,-4z M68,56l4,0 0,4 -4,0 0,-4z M76,56l4,0 0,4 -4,0 0,-4z M84,56l4,0 0,4 -4,0 0,-4z M88,56l4,0 0,4 -4,0 0,-4z M92,56l4,0 0,4 -4,0 0,-4z M96,56l4,0 0,4 -4,0 0,-4z M100,56l4,0 0,4 -4,0 0,-4z M108,56l4,0 0,4 -4,0 0,-4z M116,56l4,0 0,4 -4,0 0,-4z M120,56l4,0 0,4 -4,0 0,-4z M8,60l4,0 0,4 -4,0 0,-4z M12,60l4,0 0,4 -4,0 0,-4z M16,60l4,0 0,4 -4,0 0,-4z M24,60l4,0 0,4 -4,0 0,-4z M28,60l4,0 0,4 -4,0 0,-4z M44,60l4,0 0,4 -4,0 0,-4z M48,60l4,0 0,4 -4,0 0,-4z M56,60l4,0 0,4 -4,0 0,-4z M60,60l4,0 0,4 -4,0 0,-4z M64,60l4,0 0,4 -4,0 0,-4z M68,60l4,0 0,4 -4,0 0,-4z M72,60l4,0 0,4 -4,0 0,-4z M76,60l4,0 0,4 -4,0 0,-4z M84,60l4,0 0,4 -4,0 0,-4z M88,60l4,0 0,4 -4,0 0,-4z M92,60l4,0 0,4 -4,0 0,-4z M8,64l4,0 0,4 -4,0 0,-4z M24,64l4,0 0,4 -4,0 0,-4z M32,64l4,0 0,4 -4,0 0,-4z M40,64l4,0 0,4 -4,0 0,-4z M52,64l4,0 0,4 -4,0 0,-4z M56,64l4,0 0,4 -4,0 0,-4z M60,64l4,0 0,4 -4,0 0,-4z M64,64l4,0 0,4 -4,0 0,-4z M76,64l4,0 0,4 -4,0 0,-4z M88,64l4,0 0,4 -4,0 0,-4z M104,64l4,0 0,4 -4,0 0,-4z M108,64l4,0 0,4 -4,0 0,-4z M112,64l4,0 0,4 -4,0 0,-4z M116,64l4,0 0,4 -4,0 0,-4z M120,64l4,0 0,4 -4,0 0,-4z M12,68l4,0 0,4 -4,0 0,-4z M16,68l4,0 0,4 -4,0 0,-4z M20,68l4,0 0,4 -4,0 0,-4z M24,68l4,0 0,4 -4,0 0,-4z M44,68l4,0 0,4 -4,0 0,-4z M48,68l4,0 0,4 -4,0 0,-4z M68,68l4,0 0,4 -4,0 0,-4z M76,68l4,0 0,4 -4,0 0,-4z M80,68l4,0 0,4 -4,0 0,-4z M100,68l4,0 0,4 -4,0 0,-4z M104,68l4,0 0,4 -4,0 0,-4z M108,68l4,0 0,4 -4,0 0,-4z M116,68l4,0 0,4 -4,0 0,-4z M12,72l4,0 0,4 -4,0 0,-4z M28,72l4,0 0,4 -4,0 0,-4z M32,72l4,0 0,4 -4,0 0,-4z M36,72l4,0 0,4 -4,0 0,-4z M48,72l4,0 0,4 -4,0 0,-4z M56,72l4,0 0,4 -4,0 0,-4z M60,72l4,0 0,4 -4,0 0,-4z M76,72l4,0 0,4 -4,0 0,-4z M84,72l4,0 0,4 -4,0 0,-4z M88,72l4,0 0,4 -4,0 0,-4z M92,72l4,0 0,4 -4,0 0,-4z M116,72l4,0 0,4 -4,0 0,-4z M12,76l4,0 0,4 -4,0 0,-4z M20,76l4,0 0,4 -4,0 0,-4z M24,76l4,0 0,4 -4,0 0,-4z M36,76l4,0 0,4 -4,0 0,-4z M40,76l4,0 0,4 -4,0 0,-4z M56,76l4,0 0,4 -4,0 0,-4z M60,76l4,0 0,4 -4,0 0,-4z M64,76l4,0 0,4 -4,0 0,-4z M68,76l4,0 0,4 -4,0 0,-4z M72,76l4,0 0,4 -4,0 0,-4z M80,76l4,0 0,4 -4,0 0,-4z M92,76l4,0 0,4 -4,0 0,-4z M96,76l4,0 0,4 -4,0 0,-4z M100,76l4,0 0,4 -4,0 0,-4z M108,76l4,0 0,4 -4,0 0,-4z M120,76l4,0 0,4 -4,0 0,-4z M8,80l4,0 0,4 -4,0 0,-4z M16,80l4,0 0,4 -4,0 0,-4z M20,80l4,0 0,4 -4,0 0,-4z M32,80l4,0 0,4 -4,0 0,-4z M44,80l4,0 0,4 -4,0 0,-4z M48,80l4,0 0,4 -4,0 0,-4z M64,80l4,0 0,4 -4,0 0,-4z M68,80l4,0 0,4 -4,0 0,-4z M72,80l4,0 0,4 -4,0 0,-4z M88,80l4,0 0,4 -4,0 0,-4z M92,80l4,0 0,4 -4,0 0,-4z M104,80l4,0 0,4 -4,0 0,-4z M116,80l4,0 0,4 -4,0 0,-4z M120,80l4,0 0,4 -4,0 0,-4z M20,84l4,0 0,4 -4,0 0,-4z M36,84l4,0 0,4 -4,0 0,-4z M40,84l4,0 0,4 -4,0 0,-4z M44,84l4,0 0,4 -4,0 0,-4z M56,84l4,0 0,4 -4,0 0,-4z M64,84l4,0 0,4 -4,0 0,-4z M76,84l4,0 0,4 -4,0 0,-4z M84,84l4,0 0,4 -4,0 0,-4z M88,84l4,0 0,4 -4,0 0,-4z M92,84l4,0 0,4 -4,0 0,-4z M96,84l4,0 0,4 -4,0 0,-4z M104,84l4,0 0,4 -4,0 0,-4z M116,84l4,0 0,4 -4,0 0,-4z M120,84l4,0 0,4 -4,0 0,-4z M8,88l4,0 0,4 -4,0 0,-4z M16,88l4,0 0,4 -4,0 0,-4z M24,88l4,0 0,4 -4,0 0,-4z M28,88l4,0 0,4 -4,0 0,-4z M32,88l4,0 0,4 -4,0 0,-4z M36,88l4,0 0,4 -4,0 0,-4z M44,88l4,0 0,4 -4,0 0,-4z M56,88l4,0 0,4 -4,0 0,-4z M68,88l4,0 0,4 -4,0 0,-4z M80,88l4,0 0,4 -4,0 0,-4z M84,88l4,0 0,4 -4,0 0,-4z M88,88l4,0 0,4 -4,0 0,-4z M92,88l4,0 0,4 -4,0 0,-4z M96,88l4,0 0,4 -4,0 0,-4z M100,88l4,0 0,4 -4,0 0,-4z M104,88l4,0 0,4 -4,0 0,-4z M112,88l4,0 0,4 -4,0 0,-4z M40,92l4,0 0,4 -4,0 0,-4z M44,92l4,0 0,4 -4,0 0,-4z M48,92l4,0 0,4 -4,0 0,-4z M52,92l4,0 0,4 -4,0 0,-4z M64,92l4,0 0,4 -4,0 0,-4z M68,92l4,0 0,4 -4,0 0,-4z M84,92l4,0 0,4 -4,0 0,-4z M88,92l4,0 0,4 -4,0 0,-4z M104,92l4,0 0,4 -4,0 0,-4z M112,92l4,0 0,4 -4,0 0,-4z M116,92l4,0 0,4 -4,0 0,-4z M120,92l4,0 0,4 -4,0 0,-4z M8,96l4,0 0,4 -4,0 0,-4z M12,96l4,0 0,4 -4,0 0,-4z M16,96l4,0 0,4 -4,0 0,-4z M20,96l4,0 0,4 -4,0 0,-4z M24,96l4,0 0,4 -4,0 0,-4z M28,96l4,0 0,4 -4,0 0,-4z M32,96l4,0 0,4 -4,0 0,-4z M72,96l4,0 0,4 -4,0 0,-4z M76,96l4,0 0,4 -4,0 0,-4z M88,96l4,0 0,4 -4,0 0,-4z M96,96l4,0 0,4 -4,0 0,-4z M104,96l4,0 0,4 -4,0 0,-4z M116,96l4,0 0,4 -4,0 0,-4z M8,100l4,0 0,4 -4,0 0,-4z M32,100l4,0 0,4 -4,0 0,-4z M40,100l4,0 0,4 -4,0 0,-4z M44,100l4,0 0,4 -4,0 0,-4z M48,100l4,0 0,4 -4,0 0,-4z M52,100l4,0 0,4 -4,0 0,-4z M64,100l4,0 0,4 -4,0 0,-4z M68,100l4,0 0,4 -4,0 0,-4z M80,100l4,0 0,4 -4,0 0,-4z M84,100l4,0 0,4 -4,0 0,-4z M88,100l4,0 0,4 -4,0 0,-4z M104,100l4,0 0,4 -4,0 0,-4z M108,100l4,0 0,4 -4,0 0,-4z M112,100l4,0 0,4 -4,0 0,-4z M8,104l4,0 0,4 -4,0 0,-4z M16,104l4,0 0,4 -4,0 0,-4z M20,104l4,0 0,4 -4,0 0,-4z M24,104l4,0 0,4 -4,0 0,-4z M32,104l4,0 0,4 -4,0 0,-4z M44,104l4,0 0,4 -4,0 0,-4z M52,104l4,0 0,4 -4,0 0,-4z M56,104l4,0 0,4 -4,0 0,-4z M72,104l4,0 0,4 -4,0 0,-4z M76,104l4,0 0,4 -4,0 0,-4z M80,104l4,0 0,4 -4,0 0,-4z M88,104l4,0 0,4 -4,0 0,-4z M92,104l4,0 0,4 -4,0 0,-4z M96,104l4,0 0,4 -4,0 0,-4z M100,104l4,0 0,4 -4,0 0,-4z M104,104l4,0 0,4 -4,0 0,-4z M116,104l4,0 0,4 -4,0 0,-4z M8,108l4,0 0,4 -4,0 0,-4z M16,108l4,0 0,4 -4,0 0,-4z M20,108l4,0 0,4 -4,0 0,-4z M24,108l4,0 0,4 -4,0 0,-4z M32,108l4,0 0,4 -4,0 0,-4z M40,108l4,0 0,4 -4,0 0,-4z M52,108l4,0 0,4 -4,0 0,-4z M60,108l4,0 0,4 -4,0 0,-4z M68,108l4,0 0,4 -4,0 0,-4z M76,108l4,0 0,4 -4,0 0,-4z M80,108l4,0 0,4 -4,0 0,-4z M84,108l4,0 0,4 -4,0 0,-4z M88,108l4,0 0,4 -4,0 0,-4z M96,108l4,0 0,4 -4,0 0,-4z M100,108l4,0 0,4 -4,0 0,-4z M104,108l4,0 0,4 -4,0 0,-4z M108,108l4,0 0,4 -4,0 0,-4z M112,108l4,0 0,4 -4,0 0,-4z M120,108l4,0 0,4 -4,0 0,-4z M8,112l4,0 0,4 -4,0 0,-4z M16,112l4,0 0,4 -4,0 0,-4z M20,112l4,0 0,4 -4,0 0,-4z M24,112l4,0 0,4 -4,0 0,-4z M32,112l4,0 0,4 -4,0 0,-4z M44,112l4,0 0,4 -4,0 0,-4z M56,112l4,0 0,4 -4,0 0,-4z M68,112l4,0 0,4 -4,0 0,-4z M72,112l4,0 0,4 -4,0 0,-4z M104,112l4,0 0,4 -4,0 0,-4z M108,112l4,0 0,4 -4,0 0,-4z M112,112l4,0 0,4 -4,0 0,-4z M120,112l4,0 0,4 -4,0 0,-4z M8,116l4,0 0,4 -4,0 0,-4z M32,116l4,0 0,4 -4,0 0,-4z M48,116l4,0 0,4 -4,0 0,-4z M52,116l4,0 0,4 -4,0 0,-4z M56,116l4,0 0,4 -4,0 0,-4z M64,116l4,0 0,4 -4,0 0,-4z M72,116l4,0 0,4 -4,0 0,-4z M76,116l4,0 0,4 -4,0 0,-4z M80,116l4,0 0,4 -4,0 0,-4z M88,116l4,0 0,4 -4,0 0,-4z M96,116l4,0 0,4 -4,0 0,-4z M100,116l4,0 0,4 -4,0 0,-4z M116,116l4,0 0,4 -4,0 0,-4z M8,120l4,0 0,4 -4,0 0,-4z M12,120l4,0 0,4 -4,0 0,-4z M16,120l4,0 0,4 -4,0 0,-4z M20,120l4,0 0,4 -4,0 0,-4z M24,120l4,0 0,4 -4,0 0,-4z M28,120l4,0 0,4 -4,0 0,-4z M32,120l4,0 0,4 -4,0 0,-4z M40,120l4,0 0,4 -4,0 0,-4z M44,120l4,0 0,4 -4,0 0,-4z M48,120l4,0 0,4 -4,0 0,-4z M52,120l4,0 0,4 -4,0 0,-4z M60,120l4,0 0,4 -4,0 0,-4z M64,120l4,0 0,4 -4,0 0,-4z M68,120l4,0 0,4 -4,0 0,-4z M80,120l4,0 0,4 -4,0 0,-4z M88,120l4,0 0,4 -4,0 0,-4z M100,120l4,0 0,4 -4,0 0,-4z M104,120l4,0 0,4 -4,0 0,-4z M108,120l4,0 0,4 -4,0 0,-4z M116,120l4,0 0,4 -4,0 0,-4z " stroke="transparent" fill="black"/></svg>
