<svg xmlns="http://www.w3.org/2000/svg" width="120" height="140" viewBox="0 0 120 140" role="img" aria-label="Lola la Lechuza en camiseta de España">
  <defs><clipPath id="espWingL"><ellipse cx="24" cy="101" rx="12" ry="24" transform="rotate(14 24 101)"></ellipse></clipPath><clipPath id="espWingR"><ellipse cx="96" cy="101" rx="12" ry="24" transform="rotate(-14 96 101)"></ellipse></clipPath><clipPath id="espBody"><ellipse cx="60" cy="96" rx="33" ry="38"></ellipse></clipPath></defs>
  
  <g>
    <ellipse cx="24" cy="101" rx="12" ry="24" fill="#b08447" transform="rotate(14 24 101)"></ellipse><g clip-path="url(#espWingL)"><rect x="6" y="74" width="36" height="15" fill="#23306a" transform="rotate(14 24 101)"></rect><rect x="6" y="89" width="36" height="2" fill="#e0a54a" transform="rotate(14 24 101)"></rect></g>
    <ellipse cx="96" cy="101" rx="12" ry="24" fill="#b08447" transform="rotate(-14 96 101)"></ellipse><g clip-path="url(#espWingR)"><rect x="78" y="74" width="36" height="15" fill="#23306a" transform="rotate(-14 96 101)"></rect><rect x="78" y="89" width="36" height="2" fill="#e0a54a" transform="rotate(-14 96 101)"></rect></g>
    <ellipse cx="27" cy="84" rx="13" ry="15" fill="#23306a" transform="rotate(12 27 84)"></ellipse>
    <ellipse cx="93" cy="84" rx="13" ry="15" fill="#23306a" transform="rotate(-12 93 84)"></ellipse>
    <ellipse cx="27" cy="94" rx="12.5" ry="4" fill="#1a2450" transform="rotate(12 27 94)"></ellipse>
    <ellipse cx="93" cy="94" rx="12.5" ry="4" fill="#1a2450" transform="rotate(-12 93 94)"></ellipse>
    <path d="M19 79 q6 3 10 8" stroke="#f2c33d" stroke-width="2" fill="none" stroke-linecap="round"></path>
    <path d="M22 76 q6 3 10 8" stroke="#f2c33d" stroke-width="2" fill="none" stroke-linecap="round"></path>
    <path d="M101 79 q-6 3 -10 8" stroke="#f2c33d" stroke-width="2" fill="none" stroke-linecap="round"></path>
    <path d="M98 76 q-6 3 -10 8" stroke="#f2c33d" stroke-width="2" fill="none" stroke-linecap="round"></path>
  </g>
  
  <ellipse cx="60" cy="96" rx="33" ry="38" fill="#c8362f"></ellipse>
  <g clip-path="url(#espBody)">
    <rect x="27" y="58" width="66" height="76" fill="#c8362f"></rect>
    <rect x="37" y="58" width="2" height="76" fill="#b12b25"></rect>
    <rect x="51" y="58" width="2" height="76" fill="#b12b25"></rect>
    <rect x="65" y="58" width="2" height="76" fill="#b12b25"></rect>
    <rect x="79" y="58" width="2" height="76" fill="#b12b25"></rect>
    <rect x="44" y="58" width="1" height="76" fill="#e0a54a" opacity="0.4"></rect>
    <rect x="58" y="58" width="1" height="76" fill="#e0a54a" opacity="0.4"></rect>
    <rect x="72" y="58" width="1" height="76" fill="#e0a54a" opacity="0.4"></rect>
    <path d="M40 62 Q60 78 80 62 L80 70 Q60 84 40 70 Z" fill="#23306a"></path>
  </g>
  
  <g transform="translate(70 89)" opacity="0.85">
    <path d="M-5 -6 h10 v6 q0 5 -5 8 q-5 -3 -5 -8 Z" fill="#e6cf7d"></path>
    <path d="M-5 -6 h10 v2.6 h-10 Z" fill="#d6ba5e"></path>
    <ellipse cx="0" cy="-0.5" rx="2.6" ry="2.3" fill="#efe1a4"></ellipse>
  </g>
  
  <ellipse cx="48" cy="133" rx="7" ry="4.5" fill="#e0a458"></ellipse>
  <ellipse cx="72" cy="133" rx="7" ry="4.5" fill="#e0a458"></ellipse>
  
  <g>
    <circle cx="60" cy="48" r="33" fill="#c99a5b"></circle>
    <path d="M60 22 C44 20 30 32 33 50 C35 64 47 74 60 76 C73 74 85 64 87 50 C90 32 76 20 60 22 Z" fill="#fff7ec"></path>
    <path d="M60 24 L60 72" stroke="#eadfc8" stroke-width="2"></path>
    <circle cx="46" cy="48" r="6.5" fill="#2e2a26"></circle>
    <circle cx="74" cy="48" r="6.5" fill="#2e2a26"></circle>
    <circle cx="48" cy="46" r="2" fill="#fff"></circle>
    <circle cx="76" cy="46" r="2" fill="#fff"></circle>
    <path d="M60 56 L54 66 Q60 71 66 66 Z" fill="#e0a458"></path>
  </g>
</svg>